<svg width="10" height="10" viewBox="0 0 10 10" fill="none" xmlns="http://www.w3.org/2000/svg">
<path d="M9.5 5C9.5 5.09946 9.46049 5.19484 9.39017 5.26517C9.31984 5.33549 9.22446 5.375 9.125 5.375H5.375V9.125C5.375 9.22446 5.33549 9.31984 5.26517 9.39017C5.19484 9.46049 5.09946 9.5 5 9.5C4.90054 9.5 4.80516 9.46049 4.73484 9.39017C4.66451 9.31984 4.625 9.22446 4.625 9.125V5.375H0.875C0.775544 5.375 0.680161 5.33549 0.609835 5.26517C0.539509 5.19484 0.5 5.09946 0.5 5C0.5 4.90054 0.539509 4.80516 0.609835 4.73484C0.680161 4.66451 0.775544 4.625 0.875 4.625H4.625V0.875C4.625 0.775544 4.66451 0.680161 4.73484 0.609835C4.80516 0.539509 4.90054 0.5 5 0.5C5.09946 0.5 5.19484 0.539509 5.26517 0.609835C5.33549 0.680161 5.375 0.775544 5.375 0.875V4.625H9.125C9.22446 4.625 9.31984 4.66451 9.39017 4.73484C9.46049 4.80516 9.5 4.90054 9.5 5Z" fill="white"/>
</svg>
